<?xml version="1.0" encoding="UTF-8" standalone="no"?>
<!-- Created with Inkscape (http://www.inkscape.org/) -->

<svg
   width="123.18389mm"
   height="119.69362mm"
   viewBox="0 0 123.18389 119.69361"
   version="1.1"
   id="svg1062"
   xml:space="preserve"
   inkscape:export-filename="fungi5.svg"
   inkscape:export-xdpi="96"
   inkscape:export-ydpi="96"
   xmlns:inkscape="http://www.inkscape.org/namespaces/inkscape"
   xmlns:sodipodi="http://sodipodi.sourceforge.net/DTD/sodipodi-0.dtd"
   xmlns="http://www.w3.org/2000/svg"
   xmlns:svg="http://www.w3.org/2000/svg"><sodipodi:namedview
     id="namedview1064"
     pagecolor="#ffffff"
     bordercolor="#000000"
     borderopacity="0.25"
     inkscape:showpageshadow="2"
     inkscape:pageopacity="0.0"
     inkscape:pagecheckerboard="0"
     inkscape:deskcolor="#d1d1d1"
     inkscape:document-units="mm"
     showgrid="false"
     showborder="false"
     borderlayer="true"
     shape-rendering="auto" /><defs
     id="defs1059" /><g
     inkscape:label="Capa 1"
     inkscape:groupmode="layer"
     id="layer1"
     transform="translate(-35.227188,-82.372573)"><path
       id="path1356"
       style="fill:#000000;fill-opacity:1;stroke:#000000;stroke-width:0;stroke-dasharray:none;stroke-opacity:1;paint-order:normal"
       d="m 95.411217,82.38861 c -7.248318,0.188382 -14.077159,3.63584 -19.408934,8.399055 -3.069969,2.682544 -5.555157,5.96613 -8.681432,8.58459 -3.79935,3.149545 -8.591317,4.620585 -13.027418,6.610865 -4.605444,1.92835 -8.91443,4.62007 -12.538867,8.06411 -3.39664,3.30793 -6.17106,7.62741 -6.475116,12.4686 -0.363979,4.49879 1.190176,9.07395 4.133717,12.48412 4.679858,5.62786 11.272192,9.27567 18.006821,11.89249 6.630452,2.53552 13.577417,4.15103 20.588882,5.20322 -1.590098,9.75599 -3.827404,19.39421 -5.460614,29.14131 -0.520553,3.38056 -0.772937,7.09345 1.00211,10.17361 1.412315,2.58219 4.001049,4.28429 6.740606,5.19429 5.267842,1.8769 10.948933,1.3817 16.437825,1.44952 5.291083,-0.0319 10.641763,0.0602 15.850983,-0.99389 3.03173,-0.70882 6.01648,-2.59239 7.14867,-5.61449 1.52844,-3.68774 1.04456,-7.79027 0.56754,-11.64137 -0.88206,-5.81766 -2.42127,-11.53567 -3.31295,-17.32853 -0.83045,-4.55267 -1.60812,-9.11482 -2.44877,-13.66561 8.1438,0.78263 16.54287,0.18104 24.26272,-2.65504 5.0659,-2.04897 9.66128,-5.23169 13.45039,-9.15924 3.78827,-4.27174 6.19682,-10.09903 5.39626,-15.8615 -0.66015,-4.49705 -3.3458,-8.42619 -6.64186,-11.44337 -4.84249,-4.58001 -11.01634,-7.35311 -17.12662,-9.80792 -3.92048,-1.62977 -7.82752,-3.64105 -10.66426,-6.886155 -3.21081,-3.380117 -6.3007,-6.988481 -10.32042,-9.445939 -4.864,-3.261922 -10.65514,-5.379051 -16.568283,-5.163737 -0.30366,-0.0094 -0.60728,-8.24e-4 -0.91098,0.001 z m 1.26953,11.541016 c 5.322413,0.12181 10.234903,2.956959 13.885353,6.690844 3.74342,3.76095 7.23615,7.9218 11.88221,10.61921 5.54312,3.22014 11.81157,4.92429 17.25549,8.32997 2.85584,1.80044 5.70236,4.22446 6.55169,7.63569 0.50324,1.82382 -0.0801,3.78005 -1.30325,5.18524 -1.62403,1.86542 -3.64963,3.3396 -5.68006,4.73064 -3.17067,2.07292 -6.71359,3.58609 -10.39043,4.28433 -6.87568,1.21439 -14.0107,0.24309 -20.58978,-1.85927 -5.69782,-1.92313 -10.824259,-5.12023 -15.322393,-9.08123 -4.792756,-3.9701 -9.356486,-8.49846 -15.216566,-10.87525 -5.092034,-1.94262 -10.924231,-2.22089 -16.061991,-0.29324 -4.025309,1.55752 -7.36877,4.86573 -8.749534,8.98116 -0.774202,2.16025 -1.042581,4.51085 -0.870116,6.77887 -2.224527,-1.64535 -4.460067,-3.72224 -5.09375,-6.52148 -0.325812,-2.41238 1.151189,-4.61957 2.888312,-6.14222 4.01752,-3.97434 9.458115,-5.89022 14.539389,-8.08591 4.6532,-1.98409 9.226094,-4.44009 12.742713,-8.14841 3.783535,-3.77861 7.226955,-8.180765 12.194821,-10.475035 2.2896,-1.081734 4.794842,-1.756932 7.337892,-1.753909 z M 68.897542,129.56245 c 4.204812,-0.0266 8.007097,2.28755 10.995458,5.06943 0.871606,0.71714 1.732649,1.44661 2.574855,2.19815 -0.676433,2.62565 -1.352865,5.2513 -2.029297,7.87695 -3.820505,-0.52328 -7.771884,-1.02375 -11.152344,-3.03906 -2.652677,-1.73424 -5.016991,-4.31536 -5.639559,-7.50568 -0.24055,-1.72448 0.776135,-3.5449 2.467055,-4.08418 0.875352,-0.37249 1.838582,-0.49853 2.783832,-0.51561 z m 24.187505,15.53125 c 2.82543,1.75053 5.802126,3.24814 8.849613,4.57032 2.47968,12.35353 4.57351,24.77413 6.88332,37.15972 0.064,1.02383 0.47837,2.22015 -0.1216,3.13129 -1.24274,0.68777 -2.73272,0.5324 -4.09946,0.69137 -4.754447,0.19456 -9.513733,-0.0328 -14.266958,-0.1581 -2.044313,-0.0857 -4.158578,-0.26376 -6.196092,-0.70514 -0.369785,-1.0262 0.03945,-2.13655 0.07625,-3.19034 0.678151,-4.8047 1.919304,-9.50489 2.759566,-14.28038 1.837455,-9.19386 3.500405,-18.42381 5.539201,-27.57616 0.19206,0.11914 0.38411,0.23828 0.57617,0.35742 z" /><path
       style="fill:#000000;stroke-width:0.264583"
       d="m 136.55877,139.54938 9.9428,-4.04268"
       id="path1237" /><path
       style="fill:#000000;stroke-width:0.264583"
       d="m 136.23099,139.33085 10.59837,-3.49637"
       id="path1239" /><path
       style="fill:#000000;stroke-width:0.264583"
       d="m 154.47766,131.35476 3.93342,3.71489"
       id="path1241" /></g></svg>
