<?xml version="1.0" encoding="UTF-8" standalone="no"?>
<!-- Generator: Adobe Illustrator 16.0.0, SVG Export Plug-In . SVG Version: 6.00 Build 0)  -->

<svg
   version="1.0"
   id="Layer_1"
   x="0px"
   y="0px"
   width="79.998283"
   height="80"
   viewBox="0 0 79.998283 80"
   enable-background="new 0 0 100 100"
   xml:space="preserve"
   sodipodi:docname="plant.svg"
   inkscape:version="1.2.2 (b0a84865, 2022-12-01)"
   xmlns:inkscape="http://www.inkscape.org/namespaces/inkscape"
   xmlns:sodipodi="http://sodipodi.sourceforge.net/DTD/sodipodi-0.dtd"
   xmlns="http://www.w3.org/2000/svg"
   xmlns:svg="http://www.w3.org/2000/svg"><defs
   id="defs733" /><sodipodi:namedview
   id="namedview731"
   pagecolor="#ffffff"
   bordercolor="#000000"
   borderopacity="0.25"
   inkscape:showpageshadow="2"
   inkscape:pageopacity="0.0"
   inkscape:pagecheckerboard="0"
   inkscape:deskcolor="#d1d1d1"
   showgrid="false"
   inkscape:zoom="2.4906238"
   inkscape:cx="191.51828"
   inkscape:cy="18.670021"
   inkscape:window-width="1440"
   inkscape:window-height="847"
   inkscape:window-x="0"
   inkscape:window-y="25"
   inkscape:window-maximized="1"
   inkscape:current-layer="Layer_1" />
<path
   d="m 78.638951,10.137 c -8.513,-2.266 -17.621,-1.664 -25.824,1.771 0,0 0.004,0.003 0.004,0.006 -3.364,-4.84 -7.703,-8.949 -12.82,-11.914 -5.117,2.964 -9.456,7.07 -12.819,11.908 -8.203,-3.435 -17.3080003,-4.037 -25.8200003,-1.771 -3.558,13.34 -0.14,28.145 10.3190003,38.607 l 0.007,-0.01 c 3.887,3.889 8.98,5.836 14.075,5.85 h 10.905 c 0,7.824 -3.044,15.178 -8.568,20.703 l 4.714,4.713 c 7.019,-7.016 10.521,-16.217 10.521,-25.416 h 10.902 c 5.098,-0.014 10.188,-1.961 14.075,-5.85 l 0.007,0.01 c 10.461,-10.463 13.879,-25.267 10.322,-38.607 z m -62.234,33.883 -0.625,-0.621 C 8.7879507,36.023 5.5919507,25.788 7.0039507,15.782 c 1.563,-0.221 3.1450003,-0.335 4.7270003,-0.335 4.206,0 8.281,0.798 12.08,2.275 -2.406,5.13 -3.812,10.826 -3.812,16.874 h 0.01 c 0,5.091 1.917,9.72 5.049,13.25 -3.262,-0.18 -6.322,-1.492 -8.653,-3.826 z m 23.597,3.904 c -7.347,0 -13.326,-5.977 -13.326,-13.328 v -0.801 c 0.25,-10.185 5.224,-19.716 13.323,-25.813 8.308,6.256 13.33,16.133 13.333,26.614 0,7.351 -5.979,13.328 -13.33,13.328 z m 24.216,-4.526 -0.625,0.621 c -2.331,2.334 -5.391,3.646 -8.655,3.826 3.135,-3.529 5.052,-8.158 5.052,-13.25 h 0.009 c 0,-6.048 -1.406,-11.745 -3.812,-16.875 3.799,-1.478 7.874,-2.275 12.08,-2.275 1.582,0 3.164,0.114 4.727,0.335 1.412,10.008 -1.787,20.242 -8.776,27.618 z"
   id="path728" />
<path
   d="m 165.12565,11.472702 c -8.513,-2.2660001 -17.621,-1.6640001 -25.824,1.771 0,0 0.004,0.003 0.004,0.006 -3.364,-4.8400001 -7.703,-8.9490001 -12.82,-11.9140001 -5.117,2.964 -9.456,7.07 -12.819,11.9080001 -8.203,-3.4350001 -17.308001,-4.0370001 -25.820001,-1.771 -3.558,13.34 -0.14,28.145 10.319,38.607 l 0.007,-0.01 c 3.887001,3.889 8.980001,5.836 14.075001,5.85 h 10.905 c 0,7.824 -3.044,15.178 -8.568,20.703 l 4.714,4.713 c 7.019,-7.016 10.521,-16.217 10.521,-25.416 h 10.902 c 5.098,-0.014 10.188,-1.961 14.075,-5.85 l 0.007,0.01 c 10.461,-10.463 13.879,-25.267 10.322,-38.607 z m -62.234,33.883 -0.625,-0.621 c -6.992001,-7.376 -10.188001,-17.611 -8.776001,-27.617 1.563,-0.221 3.145,-0.335 4.727,-0.335 4.206001,0 8.281001,0.798 12.080001,2.275 -2.406,5.13 -3.812,10.826 -3.812,16.874 h 0.01 c 0,5.091 1.917,9.72 5.049,13.25 -3.262,-0.18 -6.322,-1.492 -8.653,-3.826 z m 23.597,3.904 c -7.347,0 -13.326,-5.977 -13.326,-13.328 v -0.801 c 0.25,-10.185 5.224,-19.716 13.323,-25.8130001 8.308,6.2560001 13.33,16.1330001 13.333,26.6140001 0,7.351 -5.979,13.328 -13.33,13.328 z m 24.216,-4.526 -0.625,0.621 c -2.331,2.334 -5.391,3.646 -8.655,3.826 3.135,-3.529 5.052,-8.158 5.052,-13.25 h 0.009 c 0,-6.048 -1.406,-11.745 -3.812,-16.875 3.799,-1.478 7.874,-2.275 12.08,-2.275 1.582,0 3.164,0.114 4.727,0.335 1.412,10.008 -1.787,20.242 -8.776,27.618 z"
   id="path893" /></svg>
